<svg version="1.1" viewBox="0.0 0.0 576.0 576.0" fill="none" stroke="none" stroke-linecap="square" stroke-miterlimit="10" xmlns:xlink="http://www.w3.org/1999/xlink" xmlns="http://www.w3.org/2000/svg"><clipPath id="p.0"><path d="m0 0l576.0 0l0 576.0l-576.0 0l0 -576.0z" clip-rule="nonzero"/></clipPath><g clip-path="url(#p.0)"><path fill="#000000" fill-opacity="0.0" d="m0 0l576.0 0l0 576.0l-576.0 0z" fill-rule="evenodd"/><path fill="#000000" fill-opacity="0.0" d="m349.80447 354.03018l0 -274.07874" fill-rule="evenodd"/><path stroke="#f2f2f2" stroke-width="24.0" stroke-linejoin="round" stroke-linecap="butt" d="m349.80447 354.03018l0 -274.07874" fill-rule="evenodd"/><path fill="#f2f2f2" d="m437.73096 346.31628l-60.423187 21.487915l0 -42.97583zm-43.865997 -105.88014l-27.52359 57.92552l-30.388092 -30.388092zm-105.86627 -43.852158l21.487915 60.423218l-42.97583 0zm-105.88013 43.852158l57.925537 27.53743l-30.388107 30.388092zm-43.852158 105.88014l60.423203 -21.487915l0 42.97583zm43.852158 105.86627l27.53743 -57.911682l30.388107 30.388092zm105.88013 43.865997l-21.487915 -60.423187l42.97583 0zm105.86627 -43.865997l-57.911682 -27.52359l30.388092 -30.388092zm-180.7324 -105.86627l0 0c0 -41.347443 33.518707 -74.86615 74.866135 -74.86615c41.347443 0 74.86615 33.518707 74.86615 74.86615c0 41.347412 -33.518707 74.86612 -74.86615 74.86612c-41.347427 0 -74.866135 -33.518707 -74.866135 -74.86612z" fill-rule="evenodd"/><path stroke="#f2f2f2" stroke-width="1.0" stroke-linejoin="round" stroke-linecap="butt" d="m437.73096 346.31628l-60.423187 21.487915l0 -42.97583zm-43.865997 -105.88014l-27.52359 57.92552l-30.388092 -30.388092zm-105.86627 -43.852158l21.487915 60.423218l-42.97583 0zm-105.88013 43.852158l57.925537 27.53743l-30.388107 30.388092zm-43.852158 105.88014l60.423203 -21.487915l0 42.97583zm43.852158 105.86627l27.53743 -57.911682l30.388107 30.388092zm105.88013 43.865997l-21.487915 -60.423187l42.97583 0zm105.86627 -43.865997l-57.911682 -27.52359l30.388092 -30.388092zm-180.7324 -105.86627l0 0c0 -41.347443 33.518707 -74.86615 74.866135 -74.86615c41.347443 0 74.86615 33.518707 74.86615 74.86615c0 41.347412 -33.518707 74.86612 -74.86615 74.86612c-41.347427 0 -74.866135 -33.518707 -74.866135 -74.86612z" fill-rule="evenodd"/></g></svg>