<?xml version="1.0" standalone="no"?>
<!DOCTYPE svg PUBLIC "-//W3C//DTD SVG 20010904//EN"
 "http://www.w3.org/TR/2001/REC-SVG-20010904/DTD/svg10.dtd">
<svg version="1.0" xmlns="http://www.w3.org/2000/svg"
 width="700.000000pt" height="700.000000pt" viewBox="0 0 700.000000 700.000000"
 preserveAspectRatio="xMidYMid meet">
<metadata>
Created by potrace 1.11, written by Peter Selinger 2001-2013
</metadata>
<g transform="translate(0.000000,700.000000) scale(0.100000,-0.100000)"
fill="#000000" stroke="none">
<path d="M4120 4930 c0 -1098 -1 -1170 -17 -1179 -17 -9 -17 -10 0 -28 14 -16
17 -40 17 -136 0 -64 -2 -117 -4 -117 -3 0 -42 27 -88 60 -160 115 -320 165
-528 165 -196 0 -353 -46 -500 -145 -186 -126 -322 -317 -381 -535 -32 -115
-32 -336 0 -450 89 -327 342 -576 668 -657 113 -28 303 -30 408 -4 344 83 590
320 686 661 21 75 23 102 27 463 l3 384 21 -19 c12 -10 23 -13 25 -8 2 6 75
161 163 345 88 184 158 336 156 338 -2 2 -84 -35 -183 -81 l-178 -85 -6 1097
c-3 603 -6 1097 -7 1099 -1 1 -65 2 -142 2 l-140 0 0 -1170z"/>
<path d="M3369 4242 l-126 -357 128 -3 c71 -1 187 -1 258 0 l128 3 -126 357
c-69 197 -128 358 -131 358 -3 0 -62 -161 -131 -358z"/>
<path d="M2234 4038 c20 -46 308 -652 313 -658 4 -5 363 351 363 361 0 6 -673
329 -685 329 -3 0 1 -15 9 -32z"/>
<path d="M2043 2921 c-193 -69 -349 -129 -345 -132 4 -4 166 -63 360 -131
l352 -125 0 258 c0 143 -3 259 -7 258 -5 -1 -166 -58 -360 -128z"/>
<path d="M4590 2792 l0 -259 353 125 c193 68 355 127 359 131 4 3 -151 62
-344 131 -192 69 -354 127 -359 128 -5 2 -9 -107 -9 -256z"/>
<path d="M2382 1858 c-89 -187 -161 -342 -160 -344 2 -1 154 69 338 157 184
87 340 161 345 163 9 3 -343 366 -355 366 -4 0 -79 -154 -168 -342z"/>
<path d="M4265 2019 c-99 -100 -175 -183 -170 -185 6 -2 161 -76 345 -163 184
-88 336 -158 338 -157 4 4 -322 686 -328 686 -3 0 -86 -81 -185 -181z"/>
<path d="M3243 1698 c2 -7 60 -169 128 -360 68 -192 126 -348 129 -348 3 0 61
156 129 348 68 191 126 353 128 360 4 9 -51 12 -257 12 -206 0 -261 -3 -257
-12z"/>
</g>
</svg>
