<?xml version="1.0" standalone="no"?>
<!DOCTYPE svg PUBLIC "-//W3C//DTD SVG 20010904//EN"
 "http://www.w3.org/TR/2001/REC-SVG-20010904/DTD/svg10.dtd">
<svg version="1.0" xmlns="http://www.w3.org/2000/svg"
 width="700.000000pt" height="700.000000pt" viewBox="0 0 700.000000 700.000000"
 preserveAspectRatio="xMidYMid meet">
<metadata>
Created by potrace 1.11, written by Peter Selinger 2001-2013
</metadata>
<g transform="translate(0.000000,700.000000) scale(0.100000,-0.100000)"
fill="#000000" stroke="none">
<path d="M4108 6018 c-2 -7 -4 -516 -3 -1131 0 -901 -2 -1120 -13 -1129 -10
-9 -10 -15 1 -32 9 -15 13 -54 11 -131 -1 -60 -2 -111 -3 -113 0 -1 -13 9 -28
22 -71 63 -225 143 -328 170 -261 70 -545 23 -765 -127 -66 -45 -192 -173
-238 -242 -124 -187 -174 -394 -150 -621 47 -451 450 -811 903 -807 74 0 180
12 207 22 12 5 28 9 33 10 115 17 326 140 426 248 123 134 199 280 238 458 16
70 19 238 7 315 -9 51 -12 312 -7 459 l1 24 25 -23 c14 -13 27 -21 29 -19 8 8
336 697 336 706 0 2 -9 1 -21 -2 -21 -7 -320 -147 -351 -165 -10 -6 -19 -10
-20 -10 -2 0 -3 479 -2 1065 l1 1065 -143 0 c-105 0 -143 -3 -146 -12z"/>
<path d="M3381 4293 c-62 -175 -116 -327 -121 -338 -5 -11 -13 -35 -19 -52
l-10 -33 271 0 c253 0 270 1 263 18 -10 24 -202 562 -232 650 -14 39 -28 72
-32 72 -4 0 -58 -143 -120 -317z"/>
<path d="M2210 4076 c0 -8 328 -698 336 -705 5 -6 374 361 374 372 0 4 -44 28
-97 53 -54 26 -138 66 -188 89 -49 24 -147 70 -217 103 -167 80 -208 98 -208
88z"/>
<path d="M2305 3020 c-101 -35 -262 -92 -519 -184 -96 -34 -114 -43 -105 -49
2 -2 135 -50 294 -106 160 -57 324 -115 365 -131 l75 -27 3 133 c1 74 1 194 0
268 l-3 134 -110 -38z"/>
<path d="M4580 2791 l0 -271 68 26 c37 14 78 29 92 34 30 9 374 131 480 170
41 15 84 30 95 34 23 9 51 -2 -394 156 -172 61 -320 114 -327 117 -12 4 -14
-40 -14 -266z"/>
<path d="M2516 2158 c-13 -29 -50 -109 -83 -178 -34 -69 -86 -179 -118 -245
-31 -66 -68 -144 -82 -173 -14 -29 -24 -55 -21 -57 3 -3 72 27 154 66 168 80
279 133 439 209 61 28 112 54 115 56 5 6 -362 374 -373 374 -4 0 -18 -24 -31
-52z"/>
<path d="M4260 2025 c-101 -101 -182 -186 -179 -189 4 -5 157 -78 334 -161 39
-18 137 -65 219 -104 82 -39 151 -70 153 -67 2 2 -12 38 -31 80 -85 182 -109
231 -191 401 -48 99 -91 190 -96 203 -5 12 -12 22 -16 22 -5 0 -91 -83 -193
-185z"/>
<path d="M3313 1712 l-82 -3 45 -127 c25 -70 68 -190 95 -267 28 -77 66 -185
86 -240 36 -103 40 -111 48 -104 2 3 29 77 60 164 30 88 57 166 60 173 2 7 6
16 7 20 2 4 33 90 69 192 37 102 66 186 64 188 -4 4 -359 7 -452 4z"/>
</g>
</svg>
